<svg id="Layer_1" data-name="Layer 1" xmlns="http://www.w3.org/2000/svg" viewBox="0 0 24 24"><defs><style>.cls-1{fill:#ebce73;}.cls-2{fill:#d7a811;}.cls-3{fill:#f54638;}.cls-4{fill:#fbb040;}</style></defs><path class="cls-1" d="M1.43,4.05l9.22,8.8-5,1.68S-.67,10.76,1.43,4.05Z"/><path class="cls-1" d="M4.36,3.22,13.58,12l-5,1.67S2.27,9.92,4.36,3.22Z"/><path class="cls-2" d="M4,6.47c.29,4.15,3.71,6.64,4.45,7.13l2.24-.75Z"/><path class="cls-3" d="M7.28,20.78l-.39-1.19a5.08,5.08,0,0,0,3-2.95L11,17A6.27,6.27,0,0,1,7.28,20.78Z"/><path class="cls-3" d="M3.51,20.78l-.39-1.19a5.08,5.08,0,0,0,3-2.95L7.26,17A6.31,6.31,0,0,1,3.51,20.78Z"/><path class="cls-3" d="M16.93,4.89l4.19.42-4.19.84Z"/><path class="cls-1" d="M17.35,5.31a1.68,1.68,0,1,1-1.68-1.67A1.68,1.68,0,0,1,17.35,5.31Z"/><path class="cls-1" d="M15.26,5.31s0-.12-1.26,0a10,10,0,0,1-1.17,3.94c-.78,1.43-2.28,2.07-3.72,2.82-3.91,2-7.26,3.72-7.26,3.72S6.77,20.08,11.48,17C16.41,13.88,15.26,5.31,15.26,5.31Z"/><path class="cls-1" d="M14.42,5.31h1.25V3.64H12.74A1.68,1.68,0,0,0,14.42,5.31Z"/><path class="cls-4" d="M22.43,12.53l-.18.15a1.59,1.59,0,0,1-1.05.38h-.91a1.62,1.62,0,0,1-1.14-.46h0a1.63,1.63,0,0,1-.36-1.8l2.33-5.49,1.8,5.47A1.63,1.63,0,0,1,22.43,12.53Z"/></svg>