<svg id="Layer_1" data-name="Layer 1" xmlns="http://www.w3.org/2000/svg" viewBox="0 0 24 24"><defs><style>.cls-1{fill:#eb0000;}.cls-2{fill:#eb7900;}.cls-3{fill:#f5bc00;}.cls-4{fill:#f55376;}</style></defs><rect class="cls-1" x="9.88" y="18.71" width="1.61" height="4.29"/><rect class="cls-1" x="6.66" y="18.71" width="1.61" height="4.29"/><circle class="cls-2" cx="9.35" cy="5.29" r="3.22"/><path class="cls-3" d="M8.81,5.83a5.88,5.88,0,0,1,4.83,2.52,5,5,0,0,0,.53-2.25A5.1,5.1,0,1,0,4,6.1a4.94,4.94,0,0,0,.34,1.81A5.88,5.88,0,0,1,8.81,5.83Z"/><path class="cls-4" d="M8.81,8.51V1C4.52,1,1.3,5.63,1.3,10.12c0,5,4.08,9.66,9.12,9.66A9.06,9.06,0,0,0,17,17Z"/><path class="cls-4" d="M8.83,8.49a12.14,12.14,0,0,0-.29,2.58A11.93,11.93,0,0,0,20.47,23a11.71,11.71,0,0,0,2.23-.22Z"/><path class="cls-1" d="M8.54,11.07a11.9,11.9,0,0,0,3.6,8.54A9,9,0,0,0,17,17L8.82,8.53A11.84,11.84,0,0,0,8.54,11.07Z"/><rect class="cls-1" x="4.72" y="4.17" width="3.37" height="0.76" transform="translate(7.72 12.29) rotate(-135)"/><rect class="cls-1" x="4.72" y="4.17" width="3.37" height="0.76" transform="translate(-1.34 5.86) rotate(-45)"/></svg>