<svg id="Layer_1" data-name="Layer 1" xmlns="http://www.w3.org/2000/svg" viewBox="0 0 24 24"><defs><style>.cls-1{fill:#f5bd08;}.cls-2{fill:#c7f58e;}.cls-3{fill:#79eb38;}</style></defs><polygon class="cls-1" points="17.04 3.98 17.04 5.81 23 4.9 17.04 3.98"/><circle class="cls-2" cx="15.44" cy="4.67" r="2.52"/><circle class="cls-3" cx="15.44" cy="4.67" r="0.69"/><path class="cls-2" d="M1.92,1.69,14,6.4,12.4,11.31S2.87,10.35,1.92,1.69Z"/><path class="cls-2" d="M1,6.73l13.44.36-1.52,5.6S2.43,13.6,1,6.73Z"/><path class="cls-3" d="M12.4,11.31l1.36-4.24L3.92,6.8C7,10.77,12.4,11.31,12.4,11.31Z"/><path class="cls-2" d="M12,5.81v11a5.29,5.29,0,0,0,5-5.5A5.29,5.29,0,0,0,12,5.81Z"/><path class="cls-2" d="M13.33,3.3c-2.74,5.09-3.62,13.05.5,19A31.21,31.21,0,0,0,17,20.48l-4.12-5Z"/></svg>