<svg id="Layer_1" data-name="Layer 1" xmlns="http://www.w3.org/2000/svg" viewBox="0 0 24 24"><defs><style>.cls-1{fill:#ebc339;}.cls-2{fill:#d77e29;}.cls-3{fill:#ef3b28;}.cls-4{fill:#f55376;}</style></defs><path class="cls-1" d="M5.68,1,12.5,8.2,7.2,13.12S1.9,7.06,5.68,1Z"/><path class="cls-1" d="M3,1,9.85,8.2,6.06,12C3.79,12-1,7.28,3,1Z"/><path class="cls-2" d="M9.85,8.2,4.79,2.86C3.56,6.43,5,9.78,6.15,11.63Z"/><polygon class="cls-3" points="14.77 5.92 16.67 4.03 13.64 4.03 14.77 5.92"/><polygon class="cls-3" points="14.77 5.17 16.67 7.06 13.64 7.06 14.77 5.17"/><circle class="cls-1" cx="12.69" cy="5.36" r="2.46"/><path class="cls-1" d="M4.55,14H6.9a6,6,0,0,0,6-6V5.92H10.52a6,6,0,0,0-6,6Z"/><path class="cls-1" d="M4.21,15.06,6.58,12.7,5,11.09l-4,4H1A2.26,2.26,0,0,0,4.21,15.06Z"/><circle class="cls-2" cx="13.07" cy="5.36" r="0.57"/><path class="cls-1" d="M19.17,10.68l-5.63,5.95,4.38,4.07S22.3,15.69,19.17,10.68Z"/><path class="cls-1" d="M21.36,10.68l-5.63,5.95,3.13,3.13C20.74,19.76,24.7,15.87,21.36,10.68Z"/><path class="cls-2" d="M15.73,16.63l4.18-4.41a8.67,8.67,0,0,1-1.12,7.25Z"/><polygon class="cls-3" points="11.66 14.75 10.09 13.18 12.6 13.18 11.66 14.75"/><polygon class="cls-3" points="11.66 14.12 10.09 15.69 12.6 15.69 11.66 14.12"/><circle class="cls-1" cx="13.38" cy="14.28" r="2.03"/><path class="cls-1" d="M20.11,21.44H18.16a4.94,4.94,0,0,1-4.94-4.94V14.75h1.95a4.94,4.94,0,0,1,4.94,4.94Z"/><path class="cls-1" d="M20.39,22.3l-2-1.95L19.76,19,23,22.3h0A1.88,1.88,0,0,1,20.39,22.3Z"/><circle class="cls-2" cx="13.07" cy="14.28" r="0.47"/><path class="cls-4" d="M6.32,21.85,6,21.53l-1.14-1A6.67,6.67,0,0,1,4,19.69a2.27,2.27,0,0,1-.47-1.27,2.08,2.08,0,0,1,0-.66,1.43,1.43,0,0,1,1.54-1.05,1.55,1.55,0,0,1,1.19.76.21.21,0,0,0,0,.06l.11-.16a1.55,1.55,0,0,1,1-.65,1.42,1.42,0,0,1,1.67,1.37,2.36,2.36,0,0,1-.24,1.23,2.93,2.93,0,0,1-.59.76l-1.09,1c-.29.25-.57.51-.85.77Z"/><path class="cls-4" d="M19.76,6.41l-.24-.23-.78-.68a5.2,5.2,0,0,1-.58-.57,1.49,1.49,0,0,1-.32-.87,1.37,1.37,0,0,1,0-.45,1,1,0,0,1,1.05-.71,1.05,1.05,0,0,1,.81.52l0,0,.07-.11a1,1,0,0,1,.7-.44,1,1,0,0,1,1.15.93,1.63,1.63,0,0,1-.17.84,1.85,1.85,0,0,1-.4.52l-.75.66-.58.52Z"/></svg>