<svg id="Layer_1" data-name="Layer 1" xmlns="http://www.w3.org/2000/svg" viewBox="0 0 24 24"><defs><style>.cls-1{fill:#f5bcb3;}.cls-2{fill:#f5c523;}.cls-3{fill:#de7dff;}.cls-4{fill:#874dc4;}</style></defs><rect class="cls-1" x="11.84" y="17.33" width="1.52" height="4.06"/><rect class="cls-1" x="8.29" y="17.33" width="1.52" height="4.06"/><polygon class="cls-2" points="20.46 7.18 23 4.64 18.94 4.64 20.46 7.18"/><polygon class="cls-2" points="20.46 6.17 23 8.7 18.94 8.7 20.46 6.17"/><circle class="cls-3" cx="17.17" cy="6.42" r="3.8"/><path class="cls-3" d="M5.91,18.85h4a8,8,0,0,0,8-8V7.18h-4a8,8,0,0,0-8,8Z"/><path class="cls-3" d="M5.3,20.43l3.17-3.16L6.32,15.11,1,20.43H1A3,3,0,0,0,5.3,20.43Z"/><path class="cls-3" d="M3.72,15.52H6.8a6.78,6.78,0,0,0,6.78-6.79V7.18H10.51A6.79,6.79,0,0,0,3.72,14Z"/><path class="cls-4" d="M13.58,8.08V7.24a8.72,8.72,0,0,0-7.65,8.28h.33A7.38,7.38,0,0,0,13.58,8.08Z"/><circle class="cls-4" cx="17.67" cy="6.42" r="0.76"/></svg>