<svg id="Layer_1" data-name="Layer 1" xmlns="http://www.w3.org/2000/svg" xmlns:xlink="http://www.w3.org/1999/xlink" viewBox="0 0 24 24"><defs><style>.cls-1{fill:url(#linear-gradient);}.cls-2{fill:url(#linear-gradient-2);}.cls-3{fill:url(#linear-gradient-3);}.cls-4{fill:url(#linear-gradient-4);}</style><linearGradient id="linear-gradient" x1="6.5" y1="60.12" x2="6.5" y2="83.34" gradientTransform="matrix(1, 0, 0, -1, 0, 70)" gradientUnits="userSpaceOnUse"><stop offset="0.2" stop-color="#2404c8"/><stop offset="0.52" stop-color="#311ecd"/><stop offset="0.79" stop-color="#4e2bd8"/><stop offset="0.99" stop-color="#5a3bd8"/></linearGradient><linearGradient id="linear-gradient-2" x1="17.5" y1="34.92" x2="17.5" y2="68.33" gradientTransform="matrix(1, 0, 0, -1, 0, 70)" gradientUnits="userSpaceOnUse"><stop offset="0.51" stop-color="#a57bff"/><stop offset="1" stop-color="#ba9eff"/></linearGradient><linearGradient id="linear-gradient-3" x1="10.26" y1="47" x2="10.26" y2="68.82" gradientTransform="matrix(1, 0, 0, -1, 0, 70)" gradientUnits="userSpaceOnUse"><stop offset="0" stop-color="#99b4ff"/><stop offset="1" stop-color="#eaf1ff"/></linearGradient><linearGradient id="linear-gradient-4" x1="18.24" y1="60.32" x2="17.23" y2="78.34" xlink:href="#linear-gradient"/></defs><path class="cls-1" d="M1,12A11,11,0,0,1,12,1V12Z"/><path class="cls-2" d="M23,12A11,11,0,0,0,12,1V12l7.51,8A10.8,10.8,0,0,0,23,12Z"/><path class="cls-3" d="M12,12H1A11,11,0,0,0,12,23a11.13,11.13,0,0,0,7.51-3Z"/><path class="cls-4" d="M17.25,1.28,13.36,10a.45.45,0,0,0,.6.6l8.77-3.9A.45.45,0,0,0,23,6.15a10.47,10.47,0,0,0-5.11-5.1A.45.45,0,0,0,17.25,1.28Z"/></svg>