<?xml version="1.0" encoding="utf-8"?>
<!-- Generator: Adobe Illustrator 26.3.1, SVG Export Plug-In . SVG Version: 6.00 Build 0)  -->
<svg version="1.1" id="Layer_1" xmlns="http://www.w3.org/2000/svg" xmlns:xlink="http://www.w3.org/1999/xlink" x="0px" y="0px"
	 viewBox="0 0 168 26" style="enable-background:new 0 0 168 26;" xml:space="preserve" width="186px" height="10px">
<style type="text/css">
	.st0{display:none;fill:#F2F2F2;}
	.st1{display:none;}
	.st2{display:inline;fill:#615DFF;}
	.st3{display:inline;fill:#3DD9EB;}
	.st4{fill:#5D87FF;}
	.st5{fill:#AE89FF;}
	.st6{fill:#615DFF;}
	.st7{fill:#3DD9EB;}
	.st8{fill:#F2F2F2;}
</style>
<path class="st0" d="M2,24V6.1h3.1l6.7,9.1h-1.5l6.6-9.1H20V24h-3.3V9.8l1.3,0.3l-6.8,9h-0.4l-6.6-9l1.1-0.3V24H2z M29.6,24.3
	c-1.3,0-2.4-0.3-3.5-0.9c-1-0.6-1.9-1.4-2.5-2.4c-0.6-1-0.9-2.2-0.9-3.5S23,15,23.6,14c0.6-1,1.5-1.8,2.5-2.4s2.2-0.9,3.5-0.9
	c1.3,0,2.4,0.3,3.5,0.9s1.9,1.4,2.5,2.4c0.6,1,0.9,2.2,0.9,3.5c0,1.3-0.3,2.5-0.9,3.5s-1.5,1.8-2.5,2.4C32,24,30.8,24.3,29.6,24.3z
	 M29.6,21.4c0.7,0,1.3-0.2,1.8-0.5c0.5-0.3,1-0.8,1.3-1.4c0.3-0.6,0.5-1.3,0.5-2c0-0.8-0.2-1.4-0.5-2c-0.3-0.6-0.7-1.1-1.3-1.4
	c-0.5-0.4-1.1-0.5-1.8-0.5c-0.7,0-1.4,0.2-1.9,0.5c-0.5,0.3-1,0.8-1.3,1.4c-0.3,0.6-0.5,1.2-0.5,2c0,0.8,0.2,1.4,0.5,2
	c0.3,0.6,0.8,1.1,1.3,1.4C28.2,21.2,28.8,21.4,29.6,21.4z M44.9,24.3c-1.3,0-2.4-0.3-3.4-0.9c-1-0.6-1.8-1.4-2.4-2.5
	c-0.6-1-0.9-2.2-0.9-3.5c0-1.3,0.3-2.4,0.9-3.5s1.4-1.8,2.4-2.4c1-0.6,2.1-0.9,3.4-0.9c1,0,1.9,0.2,2.6,0.6c0.8,0.4,1.4,0.9,1.8,1.6
	l-0.5,0.6V5.8H52V24h-3v-2.5l0.3,0.6c-0.4,0.7-1.1,1.2-1.9,1.6C46.7,24.1,45.9,24.3,44.9,24.3z M45.2,21.4c0.7,0,1.4-0.2,1.9-0.5
	c0.5-0.3,1-0.8,1.3-1.4c0.3-0.6,0.5-1.3,0.5-2c0-0.8-0.2-1.4-0.5-2c-0.3-0.6-0.7-1.1-1.3-1.4c-0.5-0.3-1.2-0.5-1.9-0.5
	c-0.7,0-1.3,0.2-1.9,0.5c-0.6,0.3-1,0.8-1.3,1.4c-0.3,0.6-0.5,1.2-0.5,2s0.2,1.4,0.5,2c0.3,0.6,0.8,1.1,1.3,1.4
	C43.9,21.2,44.5,21.4,45.2,21.4z M61.2,24.3c-1.3,0-2.5-0.3-3.5-0.9c-1-0.6-1.8-1.4-2.4-2.5c-0.6-1-0.8-2.2-0.8-3.5
	c0-1.3,0.3-2.5,0.8-3.5c0.6-1,1.4-1.8,2.3-2.4c1-0.6,2.1-0.9,3.3-0.9c1,0,1.9,0.2,2.7,0.5c0.8,0.3,1.4,0.8,2,1.4s1,1.3,1.2,2
	c0.3,0.8,0.4,1.6,0.4,2.4c0,0.2,0,0.5,0,0.7c0,0.2-0.1,0.4-0.1,0.6H57V16h8.3l-1.5,1.1c0.1-0.7,0.1-1.4-0.1-2
	c-0.2-0.6-0.6-1-1.1-1.4c-0.5-0.3-1.1-0.5-1.8-0.5c-0.7,0-1.2,0.2-1.8,0.5c-0.5,0.3-0.9,0.8-1.2,1.4c-0.3,0.6-0.4,1.4-0.3,2.3
	c-0.1,0.8,0,1.5,0.3,2.1c0.3,0.6,0.7,1.1,1.2,1.4c0.6,0.3,1.2,0.5,1.9,0.5s1.3-0.2,1.8-0.5c0.5-0.3,0.9-0.7,1.2-1.2l2.5,1.2
	c-0.3,0.6-0.7,1.2-1.2,1.7c-0.5,0.5-1.2,0.9-1.9,1.1C62.9,24.2,62.1,24.3,61.2,24.3z M69.7,24V10.9h3v2.9l-0.2-0.4
	c0.3-1,0.8-1.7,1.4-2c0.7-0.4,1.4-0.6,2.4-0.6h0.8v2.8h-1.1c-0.9,0-1.6,0.3-2.2,0.8c-0.5,0.5-0.8,1.3-0.8,2.3V24H69.7z M78.6,24
	V10.9h3v2.6l-0.2-0.5c0.3-0.8,0.8-1.4,1.5-1.8c0.7-0.4,1.5-0.6,2.4-0.6c1,0,1.8,0.2,2.5,0.6c0.8,0.4,1.3,1,1.8,1.8
	c0.4,0.7,0.6,1.6,0.6,2.6V24h-3.1v-7.7c0-0.6-0.1-1.1-0.3-1.5s-0.5-0.7-0.9-1c-0.4-0.2-0.8-0.4-1.4-0.4c-0.5,0-1,0.1-1.4,0.4
	c-0.4,0.2-0.7,0.5-0.9,1s-0.3,0.9-0.3,1.5V24H78.6z M92.9,24V10.9H96V24H92.9z M92.9,9.5V6.1H96v3.4H92.9z M97.8,24v-2.5l7.6-8.8
	l0.5,1.1h-7.7v-2.8h10.5v2.6l-7.4,8.8l-0.5-1.1h8V24H97.8z M116.7,24.3c-1.3,0-2.5-0.3-3.5-0.9c-1-0.6-1.8-1.4-2.4-2.5
	c-0.6-1-0.8-2.2-0.8-3.5c0-1.3,0.3-2.5,0.8-3.5c0.6-1,1.4-1.8,2.3-2.4c1-0.6,2.1-0.9,3.3-0.9c1,0,1.9,0.2,2.7,0.5
	c0.8,0.3,1.4,0.8,2,1.4s1,1.3,1.2,2c0.3,0.8,0.4,1.6,0.4,2.4c0,0.2,0,0.5,0,0.7c0,0.2-0.1,0.4-0.1,0.6h-10.1V16h8.3l-1.5,1.1
	c0.1-0.7,0.1-1.4-0.1-2c-0.2-0.6-0.6-1-1.1-1.4c-0.5-0.3-1.1-0.5-1.8-0.5c-0.7,0-1.2,0.2-1.8,0.5c-0.5,0.3-0.9,0.8-1.2,1.4
	c-0.3,0.6-0.4,1.4-0.3,2.3c-0.1,0.8,0,1.5,0.3,2.1c0.3,0.6,0.7,1.1,1.2,1.4c0.6,0.3,1.2,0.5,1.9,0.5s1.3-0.2,1.8-0.5
	c0.5-0.3,0.9-0.7,1.2-1.2l2.5,1.2c-0.3,0.6-0.7,1.2-1.2,1.7c-0.5,0.5-1.2,0.9-1.9,1.1C118.4,24.2,117.6,24.3,116.7,24.3z"/>
<g class="st1">
	<path class="st2" d="M154.1,26c2.8,0,5-2.3,4.5-5c-0.3-1.7-0.8-3.4-1.4-5c-1.3-3.2-3.1-6-5.4-8.4c-2.3-2.4-5.1-4.3-8.2-5.6
		c-1.5-0.6-3.1-1.1-4.7-1.5c-2.7-0.6-5,1.7-5,4.5v16c0,2.8,2.2,5,5,5H154.1z"/>
	<path class="st3" d="M147.7,26c-2.8,0-5-2.3-4.5-5c0.3-1.7,0.8-3.4,1.5-5c1.3-3.2,3.1-6,5.4-8.4c2.3-2.4,5.1-4.3,8.2-5.6
		c1.5-0.6,3.1-1.1,4.7-1.5c2.7-0.6,5,1.7,5,4.5v16c0,2.8-2.2,5-5,5H147.7z"/>
</g>
<g>
	<rect x="150.6" y="20.4" class="st4" width="2.1" height="5.6"/>
	<rect x="145.6" y="20.4" class="st4" width="2.1" height="5.6"/>
	<polygon class="st5" points="162.5,6.3 166,2.8 160.4,2.8 	"/>
	<polygon class="st5" points="162.5,4.9 166,8.4 160.4,8.4 	"/>
	<circle class="st6" cx="157.9" cy="5.3" r="5.3"/>
	<path class="st6" d="M142.3,22.5h5.6c6.1,0,11.1-5,11.1-11.1V6.3h-5.6c-6.1,0-11.1,5-11.1,11.1V22.5z"/>
	<path class="st6" d="M141.5,24.7l4.4-4.4l-3-3l-7.4,7.4l0,0C137.2,26.3,139.9,26.3,141.5,24.7z"/>
	<path class="st6" d="M139.3,17.9h4.3c5.2,0,9.4-4.2,9.4-9.4V6.3h-4.3c-5.2,0-9.4,4.2-9.4,9.4V17.9z"/>
	<path class="st7" d="M153,7.6V6.4c-5.8,0.7-10.3,5.5-10.6,11.5h0.4C148.4,17.9,153,13.3,153,7.6z"/>
	<circle class="st7" cx="158.6" cy="5.3" r="1.1"/>
</g>
<g>
	<g>
		<g>
			<path class="st8" d="M2.1,18.3L8.8,7.7h3.5l2.5,10.5h-3.5L9.6,9.4H11l-5.1,8.9H2.1z M5.2,16.4l1.4-2.6h4.8l0.4,2.6H5.2z"/>
			<path class="st8" d="M18.7,18.3L16.3,7.7H20l1.9,8.9h-2.3l5.5-8.9h3.6l-6.5,10.5H18.7z"/>
			<path class="st8" d="M31.2,15.6h5.3l-0.5,2.7h-8.7l2.1-10.5h8.5l-0.5,2.7h-5.1L31.2,15.6z M31.7,11.6h4.7l-0.5,2.6h-4.7
				L31.7,11.6z"/>
			<path class="st8" d="M37.3,18.3l2.1-10.5h4.7c1.4,0,2.5,0.3,3.2,0.9c0.8,0.6,1.1,1.5,1.1,2.5c0,0.9-0.2,1.7-0.7,2.3
				c-0.4,0.7-1.1,1.2-1.8,1.5c-0.8,0.4-1.7,0.6-2.8,0.6h-3.4l1.9-1.5l-0.8,4.1H37.3z M41.5,14.5l-1.2-1.6h3c0.5,0,0.9-0.1,1.1-0.4
				c0.3-0.2,0.4-0.6,0.4-1c0-0.4-0.1-0.7-0.4-0.8c-0.2-0.2-0.6-0.2-1-0.2h-2.7l1.9-1.7L41.5,14.5z M43.7,18.3l-2.2-3.8h3.6l2.2,3.8
				H43.7z"/>
			<path class="st8" d="M51.1,18.3l0.9-4.6l0.4,2.1l-3.2-8h3.6l2.2,5.5h-2.2l4.4-5.5h3.6l-6.3,8l1.2-2.1l-0.9,4.6H51.1z"/>
			<path class="st8" d="M65.7,17.3H72l-0.2,1h-7.4l2.1-10.5h7.2l-0.2,1h-6.1L65.7,17.3z M66.5,12.4h5.6l-0.2,0.9h-5.6L66.5,12.4z"/>
			<path class="st8" d="M73,18.3l5.4-5.7l-0.1,0.6l-3-5.4h1.2l2.6,4.6l-0.5-0.1l4.3-4.6h1.3l-5,5.4l0-0.6l3.2,5.7h-1.2l-2.7-4.9
				l0.5,0l-4.6,4.9H73z"/>
			<path class="st8" d="M84.3,18.3l2.1-10.5h3.8c1.2,0,2.1,0.3,2.8,0.8c0.7,0.5,1,1.3,1,2.2c0,0.9-0.2,1.7-0.6,2.3
				c-0.4,0.6-1,1.1-1.7,1.4c-0.7,0.3-1.6,0.5-2.6,0.5h-3.5l0.6-0.5l-0.8,3.8H84.3z M86.1,14.5L85.7,14H89c1.2,0,2.1-0.3,2.8-0.8
				c0.7-0.5,1-1.3,1-2.3c0-0.7-0.2-1.2-0.7-1.6c-0.5-0.4-1.1-0.5-2-0.5h-3.2l0.6-0.6L86.1,14.5z"/>
			<path class="st8" d="M96.3,17.3h6.3l-0.2,1H95l2.1-10.5h7.2l-0.2,1H98L96.3,17.3z M97.2,12.4h5.6l-0.2,0.9H97L97.2,12.4z"/>
			<path class="st8" d="M105.1,18.3l2.1-10.5h3.8c1.2,0,2.1,0.3,2.8,0.8c0.7,0.5,1,1.3,1,2.2c0,0.9-0.2,1.6-0.6,2.3
				c-0.4,0.6-1,1.1-1.7,1.4s-1.6,0.5-2.6,0.5h-3.5l0.6-0.5l-0.8,3.8H105.1z M106.9,14.5l-0.4-0.5h3.3c1.2,0,2.1-0.3,2.8-0.8
				c0.7-0.5,1-1.3,1-2.3c0-0.7-0.2-1.2-0.7-1.6c-0.5-0.4-1.1-0.5-2-0.5h-3.3l0.6-0.5L106.9,14.5z M112.3,18.3l-2.1-3.8h1.2l2.2,3.8
				H112.3z"/>
			<path class="st8" d="M118,18.3l1.9-9.5h-3.7l0.2-1h8.5l-0.2,1H121l-1.9,9.5H118z"/>
		</g>
	</g>
</g>
</svg>
