<?xml version="1.0" encoding="utf-8"?>
<!-- Generator: Adobe Illustrator 26.3.1, SVG Export Plug-In . SVG Version: 6.00 Build 0)  -->
<svg version="1.1" id="Layer_1" xmlns="http://www.w3.org/2000/svg" xmlns:xlink="http://www.w3.org/1999/xlink" x="0px" y="0px"
	 viewBox="0 0 168 26" style="enable-background:new 0 0 168 26;" xml:space="preserve" width="186px" height="10px">
<style type="text/css">
	.st0{display:none;fill:#333333;}
	.st1{display:none;}
	.st2{display:inline;fill:#615DFF;}
	.st3{display:inline;fill:#3DD9EB;}
	.st4{fill:#5D87FF;}
	.st5{fill:#AE89FF;}
	.st6{fill:#615DFF;}
	.st7{fill:#3DD9EB;}
	.st8{fill:#333333;}
</style>
<path class="st0" d="M1.7,24V6.1h3.1l6.7,9.1h-1.5l6.6-9.1h3.1V24h-3.3V9.8l1.3,0.3l-6.8,9h-0.4l-6.6-9L5,9.8V24H1.7z M29.3,24.3
	c-1.3,0-2.4-0.3-3.5-0.9c-1-0.6-1.9-1.4-2.5-2.4c-0.6-1-0.9-2.2-0.9-3.5s0.3-2.5,0.9-3.5c0.6-1,1.5-1.8,2.5-2.4
	c1-0.6,2.2-0.9,3.5-0.9c1.3,0,2.4,0.3,3.5,0.9s1.9,1.4,2.5,2.4c0.6,1,0.9,2.2,0.9,3.5c0,1.3-0.3,2.5-0.9,3.5s-1.5,1.8-2.5,2.4
	C31.7,24,30.5,24.3,29.3,24.3z M29.3,21.4c0.7,0,1.3-0.2,1.8-0.5c0.5-0.3,1-0.8,1.3-1.4c0.3-0.6,0.5-1.3,0.5-2c0-0.8-0.2-1.4-0.5-2
	c-0.3-0.6-0.7-1.1-1.3-1.4c-0.5-0.4-1.1-0.5-1.8-0.5c-0.7,0-1.4,0.2-1.9,0.5c-0.5,0.3-1,0.8-1.3,1.4c-0.3,0.6-0.5,1.2-0.5,2
	c0,0.8,0.2,1.4,0.5,2c0.3,0.6,0.8,1.1,1.3,1.4C27.9,21.2,28.5,21.4,29.3,21.4z M44.6,24.3c-1.3,0-2.4-0.3-3.4-0.9
	c-1-0.6-1.8-1.4-2.4-2.5c-0.6-1-0.9-2.2-0.9-3.5c0-1.3,0.3-2.4,0.9-3.5s1.4-1.8,2.4-2.4c1-0.6,2.1-0.9,3.4-0.9c1,0,1.9,0.2,2.6,0.6
	c0.8,0.4,1.4,0.9,1.8,1.6l-0.5,0.6V5.8h3.1V24h-3v-2.5l0.3,0.6c-0.4,0.7-1.1,1.2-1.9,1.6C46.4,24.1,45.6,24.3,44.6,24.3z M45,21.4
	c0.7,0,1.4-0.2,1.9-0.5c0.5-0.3,1-0.8,1.3-1.4c0.3-0.6,0.5-1.3,0.5-2c0-0.8-0.2-1.4-0.5-2c-0.3-0.6-0.7-1.1-1.3-1.4
	c-0.5-0.3-1.2-0.5-1.9-0.5c-0.7,0-1.3,0.2-1.9,0.5c-0.6,0.3-1,0.8-1.3,1.4c-0.3,0.6-0.5,1.2-0.5,2s0.2,1.4,0.5,2
	c0.3,0.6,0.8,1.1,1.3,1.4C43.6,21.2,44.2,21.4,45,21.4z M60.9,24.3c-1.3,0-2.5-0.3-3.5-0.9s-1.8-1.4-2.4-2.5c-0.6-1-0.8-2.2-0.8-3.5
	c0-1.3,0.3-2.5,0.8-3.5c0.6-1,1.4-1.8,2.3-2.4c1-0.6,2.1-0.9,3.3-0.9c1,0,1.9,0.2,2.7,0.5c0.8,0.3,1.4,0.8,2,1.4
	c0.5,0.6,1,1.3,1.2,2c0.3,0.8,0.4,1.6,0.4,2.4c0,0.2,0,0.5,0,0.7c0,0.2-0.1,0.4-0.1,0.6H56.7V16H65l-1.5,1.1c0.1-0.7,0.1-1.4-0.1-2
	c-0.2-0.6-0.6-1-1.1-1.4c-0.5-0.3-1.1-0.5-1.8-0.5c-0.7,0-1.2,0.2-1.8,0.5c-0.5,0.3-0.9,0.8-1.2,1.4c-0.3,0.6-0.4,1.4-0.3,2.3
	c-0.1,0.8,0,1.5,0.3,2.1c0.3,0.6,0.7,1.1,1.2,1.4c0.6,0.3,1.2,0.5,1.9,0.5c0.7,0,1.3-0.2,1.8-0.5c0.5-0.3,0.9-0.7,1.2-1.2l2.5,1.2
	c-0.3,0.6-0.7,1.2-1.2,1.7c-0.5,0.5-1.2,0.9-1.9,1.1C62.6,24.2,61.8,24.3,60.9,24.3z M69.4,24V10.9h3v2.9l-0.2-0.4
	c0.3-1,0.8-1.7,1.4-2c0.7-0.4,1.4-0.6,2.4-0.6h0.8v2.8h-1.1c-0.9,0-1.6,0.3-2.2,0.8c-0.5,0.5-0.8,1.3-0.8,2.3V24H69.4z M78.3,24
	V10.9h3v2.6l-0.2-0.5c0.3-0.8,0.8-1.4,1.5-1.8c0.7-0.4,1.5-0.6,2.4-0.6c1,0,1.8,0.2,2.5,0.6c0.8,0.4,1.3,1,1.8,1.8
	c0.4,0.7,0.6,1.6,0.6,2.6V24h-3.1v-7.7c0-0.6-0.1-1.1-0.3-1.5s-0.5-0.7-0.9-1c-0.4-0.2-0.8-0.4-1.4-0.4c-0.5,0-1,0.1-1.4,0.4
	c-0.4,0.2-0.7,0.5-0.9,1s-0.3,0.9-0.3,1.5V24H78.3z M92.6,24V10.9h3.1V24H92.6z M92.6,9.5V6.1h3.1v3.4H92.6z M97.5,24v-2.5l7.6-8.8
	l0.5,1.1h-7.7v-2.8h10.5v2.6l-7.4,8.8l-0.5-1.1h8V24H97.5z M116.4,24.3c-1.3,0-2.5-0.3-3.5-0.9c-1-0.6-1.8-1.4-2.4-2.5
	c-0.6-1-0.8-2.2-0.8-3.5c0-1.3,0.3-2.5,0.8-3.5c0.6-1,1.4-1.8,2.3-2.4c1-0.6,2.1-0.9,3.3-0.9c1,0,1.9,0.2,2.7,0.5
	c0.8,0.3,1.4,0.8,2,1.4c0.5,0.6,1,1.3,1.2,2c0.3,0.8,0.4,1.6,0.4,2.4c0,0.2,0,0.5,0,0.7c0,0.2-0.1,0.4-0.1,0.6h-10.1V16h8.3
	l-1.5,1.1c0.1-0.7,0.1-1.4-0.1-2c-0.2-0.6-0.6-1-1.1-1.4c-0.5-0.3-1.1-0.5-1.8-0.5c-0.7,0-1.2,0.2-1.8,0.5c-0.5,0.3-0.9,0.8-1.2,1.4
	c-0.3,0.6-0.4,1.4-0.3,2.3c-0.1,0.8,0,1.5,0.3,2.1c0.3,0.6,0.7,1.1,1.2,1.4c0.6,0.3,1.2,0.5,1.9,0.5c0.7,0,1.3-0.2,1.8-0.5
	c0.5-0.3,0.9-0.7,1.2-1.2l2.5,1.2c-0.3,0.6-0.7,1.2-1.2,1.7c-0.5,0.5-1.2,0.9-1.9,1.1C118.1,24.2,117.3,24.3,116.4,24.3z"/>
<g class="st1">
	<path class="st2" d="M153.8,26c2.8,0,5-2.3,4.5-5c-0.3-1.7-0.8-3.4-1.4-5c-1.3-3.2-3.1-6-5.4-8.4c-2.3-2.4-5.1-4.3-8.2-5.6
		c-1.5-0.6-3.1-1.1-4.7-1.5c-2.7-0.6-5,1.7-5,4.5v16c0,2.8,2.2,5,5,5H153.8z"/>
	<path class="st3" d="M147.4,26c-2.8,0-5-2.3-4.5-5c0.3-1.7,0.8-3.4,1.4-5c1.3-3.2,3.1-6,5.4-8.4c2.3-2.4,5.1-4.3,8.2-5.6
		c1.5-0.6,3.1-1.1,4.7-1.5c2.7-0.6,5,1.7,5,4.5v16c0,2.8-2.2,5-5,5H147.4z"/>
</g>
<g>
	<rect x="151.3" y="20.4" class="st4" width="2.1" height="5.6"/>
	<rect x="146.4" y="20.4" class="st4" width="2.1" height="5.6"/>
	<polygon class="st5" points="163.2,6.3 166.7,2.8 161.1,2.8 	"/>
	<polygon class="st5" points="163.2,4.9 166.7,8.4 161.1,8.4 	"/>
	<circle class="st6" cx="158.7" cy="5.3" r="5.3"/>
	<path class="st6" d="M143.1,22.5h5.6c6.1,0,11.1-5,11.1-11.1V6.3h-5.6c-6.1,0-11.1,5-11.1,11.1V22.5z"/>
	<path class="st6" d="M142.2,24.7l4.4-4.4l-3-3l-7.4,7.4l0,0C137.9,26.3,140.6,26.3,142.2,24.7z"/>
	<path class="st6" d="M140,17.9h4.3c5.2,0,9.4-4.2,9.4-9.4V6.3h-4.3c-5.2,0-9.4,4.2-9.4,9.4V17.9z"/>
	<path class="st7" d="M153.7,7.6V6.4c-5.8,0.7-10.3,5.5-10.6,11.5h0.4C149.2,17.9,153.7,13.3,153.7,7.6z"/>
	<circle class="st7" cx="159.4" cy="5.3" r="1.1"/>
</g>
<g>
	<g>
		<g>
			<path class="st8" d="M1.9,18.3L8.6,7.7h3.5l2.5,10.5H11L9.3,9.4h1.4l-5.1,8.9H1.9z M5,16.4l1.4-2.6h4.8l0.4,2.6H5z"/>
			<path class="st8" d="M18.4,18.3L16.1,7.7h3.6l1.9,8.9h-2.3l5.5-8.9h3.6l-6.5,10.5H18.4z"/>
			<path class="st8" d="M30.9,15.6h5.3l-0.5,2.7h-8.7L29,7.7h8.5L37,10.4H32L30.9,15.6z M31.5,11.6h4.7l-0.5,2.6H31L31.5,11.6z"/>
			<path class="st8" d="M37,18.3l2.1-10.5h4.7c1.4,0,2.5,0.3,3.2,0.9c0.8,0.6,1.1,1.5,1.1,2.5c0,0.9-0.2,1.7-0.7,2.3
				s-1.1,1.2-1.8,1.5c-0.8,0.4-1.7,0.6-2.8,0.6h-3.4l1.9-1.5l-0.8,4.1H37z M41.3,14.5l-1.2-1.6h3c0.5,0,0.9-0.1,1.1-0.4
				c0.3-0.2,0.4-0.6,0.4-1c0-0.4-0.1-0.7-0.4-0.8c-0.2-0.2-0.6-0.2-1-0.2h-2.7l1.9-1.7L41.3,14.5z M43.4,18.3l-2.2-3.8h3.6l2.2,3.8
				H43.4z"/>
			<path class="st8" d="M50.9,18.3l0.9-4.6l0.4,2.1l-3.2-8h3.6l2.2,5.5h-2.2L57,7.7h3.6l-6.3,8l1.2-2.1l-0.9,4.6H50.9z"/>
			<path class="st8" d="M65.4,17.3h6.3l-0.2,1h-7.4l2.1-10.5h7.2l-0.2,1h-6.1L65.4,17.3z M66.3,12.4h5.6l-0.2,0.9h-5.6L66.3,12.4z"
				/>
			<path class="st8" d="M72.7,18.3l5.4-5.7L78,13.1l-3-5.4h1.2l2.6,4.6l-0.5-0.1l4.3-4.6h1.3l-5,5.4l0-0.6l3.2,5.7h-1.2l-2.7-4.9
				l0.5,0L74,18.3H72.7z"/>
			<path class="st8" d="M84,18.3l2.1-10.5h3.8c1.2,0,2.1,0.3,2.8,0.8c0.7,0.5,1,1.3,1,2.2c0,0.9-0.2,1.7-0.6,2.3
				c-0.4,0.6-1,1.1-1.7,1.4c-0.7,0.3-1.6,0.5-2.6,0.5h-3.5l0.6-0.5l-0.8,3.8H84z M85.9,14.5L85.5,14h3.3c1.2,0,2.1-0.3,2.8-0.8
				c0.7-0.5,1-1.3,1-2.3c0-0.7-0.2-1.2-0.7-1.6c-0.5-0.4-1.1-0.5-2-0.5h-3.2l0.6-0.6L85.9,14.5z"/>
			<path class="st8" d="M96.1,17.3h6.3l-0.2,1h-7.4l2.1-10.5h7.2l-0.2,1h-6.1L96.1,17.3z M96.9,12.4h5.6l-0.2,0.9h-5.6L96.9,12.4z"
				/>
			<path class="st8" d="M104.8,18.3l2.1-10.5h3.8c1.2,0,2.1,0.3,2.8,0.8c0.7,0.5,1,1.3,1,2.2c0,0.9-0.2,1.6-0.6,2.3
				c-0.4,0.6-1,1.1-1.7,1.4s-1.6,0.5-2.6,0.5h-3.5l0.6-0.5l-0.8,3.8H104.8z M106.7,14.5l-0.4-0.5h3.3c1.2,0,2.1-0.3,2.8-0.8
				c0.7-0.5,1-1.3,1-2.3c0-0.7-0.2-1.2-0.7-1.6c-0.5-0.4-1.1-0.5-2-0.5h-3.3l0.6-0.5L106.7,14.5z M112,18.3l-2.1-3.8h1.2l2.2,3.8
				H112z"/>
			<path class="st8" d="M117.7,18.3l1.9-9.5h-3.7l0.2-1h8.5l-0.2,1h-3.7l-1.9,9.5H117.7z"/>
		</g>
	</g>
</g>
</svg>
