<?xml version="1.0" encoding="utf-8"?>
<!-- Generator: Adobe Illustrator 26.3.1, SVG Export Plug-In . SVG Version: 6.00 Build 0)  -->
<svg version="1.1" id="Layer_1" xmlns="http://www.w3.org/2000/svg" xmlns:xlink="http://www.w3.org/1999/xlink" x="0px" y="0px"
	 viewBox="0 0 174 26" style="enable-background:new 0 0 174 26;" xml:space="preserve" width="186px" height="10px">
<style type="text/css">
	.st0{display:none;fill:#F2F2F2;}
	.st1{display:none;}
	.st2{display:inline;fill:#615DFF;}
	.st3{display:inline;fill:#3DD9EB;}
	.st4{fill:#5D87FF;}
	.st5{fill:#AE89FF;}
	.st6{fill:#615DFF;}
	.st7{fill:#3DD9EB;}
	.st8{fill:#F2F2F2;}
</style>
<path class="st0" d="M46,23V5.1h3.1l6.7,9.1h-1.5l6.6-9.1H64V23h-3.3V8.8L62,9.2l-6.8,9h-0.4l-6.6-9l1.1-0.3V23H46z M73.6,23.3
	c-1.3,0-2.4-0.3-3.5-0.9c-1-0.6-1.9-1.4-2.5-2.4c-0.6-1-0.9-2.2-0.9-3.5S67,14,67.6,13c0.6-1,1.5-1.8,2.5-2.4s2.2-0.9,3.5-0.9
	c1.3,0,2.4,0.3,3.5,0.9s1.9,1.4,2.5,2.4c0.6,1,0.9,2.2,0.9,3.5c0,1.3-0.3,2.5-0.9,3.5s-1.5,1.8-2.5,2.4C76,23,74.8,23.3,73.6,23.3z
	 M73.6,20.4c0.7,0,1.3-0.2,1.8-0.5c0.5-0.3,1-0.8,1.3-1.4c0.3-0.6,0.5-1.3,0.5-2c0-0.8-0.2-1.4-0.5-2c-0.3-0.6-0.7-1.1-1.3-1.4
	c-0.5-0.4-1.1-0.5-1.8-0.5c-0.7,0-1.4,0.2-1.9,0.5c-0.5,0.3-1,0.8-1.3,1.4c-0.3,0.6-0.5,1.2-0.5,2c0,0.8,0.2,1.4,0.5,2
	c0.3,0.6,0.8,1.1,1.3,1.4C72.2,20.2,72.8,20.4,73.6,20.4z M88.9,23.3c-1.3,0-2.4-0.3-3.4-0.9c-1-0.6-1.8-1.4-2.4-2.5
	c-0.6-1-0.9-2.2-0.9-3.5c0-1.3,0.3-2.4,0.9-3.5c0.6-1,1.4-1.8,2.4-2.4c1-0.6,2.1-0.9,3.4-0.9c1,0,1.9,0.2,2.6,0.6
	c0.8,0.4,1.4,0.9,1.8,1.6l-0.5,0.6V4.8H96V23h-3v-2.5l0.3,0.6c-0.4,0.7-1.1,1.2-1.9,1.6C90.7,23.1,89.9,23.3,88.9,23.3z M89.2,20.4
	c0.7,0,1.4-0.2,1.9-0.5c0.5-0.3,1-0.8,1.3-1.4c0.3-0.6,0.5-1.3,0.5-2c0-0.8-0.2-1.4-0.5-2c-0.3-0.6-0.7-1.1-1.3-1.4
	c-0.5-0.3-1.2-0.5-1.9-0.5c-0.7,0-1.3,0.2-1.9,0.5c-0.6,0.3-1,0.8-1.3,1.4c-0.3,0.6-0.5,1.2-0.5,2s0.2,1.4,0.5,2
	c0.3,0.6,0.8,1.1,1.3,1.4C87.9,20.2,88.5,20.4,89.2,20.4z M105.2,23.3c-1.3,0-2.5-0.3-3.5-0.9c-1-0.6-1.8-1.4-2.4-2.5
	c-0.6-1-0.8-2.2-0.8-3.5c0-1.3,0.3-2.5,0.8-3.5c0.6-1,1.4-1.8,2.3-2.4c1-0.6,2.1-0.9,3.3-0.9c1,0,1.9,0.2,2.7,0.5
	c0.8,0.3,1.4,0.8,2,1.4s1,1.3,1.2,2c0.3,0.8,0.4,1.6,0.4,2.4c0,0.2,0,0.5,0,0.7c0,0.2-0.1,0.4-0.1,0.6H101V15h8.3l-1.5,1.1
	c0.1-0.7,0.1-1.4-0.1-2c-0.2-0.6-0.6-1-1.1-1.4c-0.5-0.3-1.1-0.5-1.8-0.5c-0.7,0-1.2,0.2-1.8,0.5c-0.5,0.3-0.9,0.8-1.2,1.4
	c-0.3,0.6-0.4,1.4-0.3,2.3c-0.1,0.8,0,1.5,0.3,2.1c0.3,0.6,0.7,1.1,1.2,1.4c0.6,0.3,1.2,0.5,1.9,0.5s1.3-0.2,1.8-0.5
	c0.5-0.3,0.9-0.7,1.2-1.2l2.5,1.2c-0.3,0.6-0.7,1.2-1.2,1.7c-0.5,0.5-1.2,0.9-1.9,1.1C106.9,23.2,106.1,23.3,105.2,23.3z M113.7,23
	V9.9h3v2.9l-0.2-0.4c0.3-1,0.8-1.7,1.4-2c0.7-0.4,1.4-0.6,2.4-0.6h0.8v2.8h-1.1c-0.9,0-1.6,0.3-2.2,0.8c-0.5,0.5-0.8,1.3-0.8,2.3V23
	H113.7z M122.6,23V9.9h3v2.6l-0.2-0.5c0.3-0.8,0.8-1.4,1.5-1.8c0.7-0.4,1.5-0.6,2.4-0.6c1,0,1.8,0.2,2.5,0.6c0.8,0.4,1.3,1,1.8,1.8
	c0.4,0.7,0.6,1.6,0.6,2.6V23h-3.1v-7.7c0-0.6-0.1-1.1-0.3-1.5s-0.5-0.7-0.9-1c-0.4-0.2-0.8-0.4-1.4-0.4c-0.5,0-1,0.1-1.4,0.4
	c-0.4,0.2-0.7,0.5-0.9,1c-0.2,0.4-0.3,0.9-0.3,1.5V23H122.6z M136.9,23V9.9h3.1V23H136.9z M136.9,8.5V5.1h3.1v3.4H136.9z M141.8,23
	v-2.5l7.6-8.8l0.5,1.1h-7.7V9.9h10.5v2.6l-7.4,8.8l-0.5-1.1h8V23H141.8z M160.7,23.3c-1.3,0-2.5-0.3-3.5-0.9c-1-0.6-1.8-1.4-2.4-2.5
	c-0.6-1-0.8-2.2-0.8-3.5c0-1.3,0.3-2.5,0.8-3.5c0.6-1,1.4-1.8,2.3-2.4c1-0.6,2.1-0.9,3.3-0.9c1,0,1.9,0.2,2.7,0.5
	c0.8,0.3,1.4,0.8,2,1.4c0.5,0.6,1,1.3,1.2,2c0.3,0.8,0.4,1.6,0.4,2.4c0,0.2,0,0.5,0,0.7c0,0.2-0.1,0.4-0.1,0.6h-10.1V15h8.3
	l-1.5,1.1c0.1-0.7,0.1-1.4-0.1-2c-0.2-0.6-0.6-1-1.1-1.4c-0.5-0.3-1.1-0.5-1.8-0.5c-0.7,0-1.2,0.2-1.8,0.5c-0.5,0.3-0.9,0.8-1.2,1.4
	c-0.3,0.6-0.4,1.4-0.3,2.3c-0.1,0.8,0,1.5,0.3,2.1c0.3,0.6,0.7,1.1,1.2,1.4c0.6,0.3,1.2,0.5,1.9,0.5c0.7,0,1.3-0.2,1.8-0.5
	c0.5-0.3,0.9-0.7,1.2-1.2l2.5,1.2c-0.3,0.6-0.7,1.2-1.2,1.7c-0.5,0.5-1.2,0.9-1.9,1.1C162.4,23.2,161.6,23.3,160.7,23.3z"/>
<g class="st1">
	<path class="st2" d="M20.1,26c2.8,0,5-2.3,4.5-5c-0.3-1.7-0.8-3.4-1.4-5c-1.3-3.2-3.1-6-5.4-8.4C15.4,5.2,12.7,3.3,9.6,2
		C8.1,1.3,6.6,0.8,5,0.5C2.3-0.1,0,2.2,0,5v16c0,2.8,2.2,5,5,5H20.1z"/>
	<path class="st3" d="M13.7,26c-2.8,0-5-2.3-4.5-5c0.3-1.7,0.8-3.4,1.4-5c1.3-3.2,3.1-6,5.4-8.4c2.3-2.4,5.1-4.3,8.2-5.6
		c1.5-0.6,3.1-1.1,4.7-1.5c2.7-0.6,5,1.7,5,4.5v16c0,2.8-2.2,5-5,5H13.7z"/>
</g>
<g>
	<rect x="16.4" y="20.4" class="st4" width="2.1" height="5.6"/>
	<rect x="11.5" y="20.4" class="st4" width="2.1" height="5.6"/>
	<polygon class="st5" points="28.4,6.3 31.9,2.8 26.3,2.8 	"/>
	<polygon class="st5" points="28.4,4.9 31.9,8.4 26.3,8.4 	"/>
	<circle class="st6" cx="23.8" cy="5.3" r="5.3"/>
	<path class="st6" d="M8.2,22.5h5.6c6.1,0,11.1-5,11.1-11.1V6.3h-5.6c-6.1,0-11.1,5-11.1,11.1V22.5z"/>
	<path class="st6" d="M7.4,24.7l4.4-4.4l-3-3l-7.4,7.4l0,0C3.1,26.3,5.7,26.3,7.4,24.7z"/>
	<path class="st6" d="M5.2,17.9h4.3c5.2,0,9.4-4.2,9.4-9.4V6.3h-4.3c-5.2,0-9.4,4.2-9.4,9.4V17.9z"/>
	<path class="st7" d="M18.8,7.6V6.4C13.1,7.1,8.5,11.9,8.3,17.9h0.4C14.3,17.9,18.8,13.3,18.8,7.6z"/>
	<circle class="st7" cx="24.5" cy="5.3" r="1.1"/>
</g>
<g>
	<g>
		<g>
			<path class="st8" d="M45.5,18.3l6.7-10.5h3.5l2.5,10.5h-3.5L53,9.4h1.4l-5.1,8.9H45.5z M48.6,16.4l1.4-2.6h4.8l0.4,2.6H48.6z"/>
			<path class="st8" d="M62.1,18.3L59.7,7.7h3.6l1.9,8.9h-2.3l5.5-8.9h3.6l-6.5,10.5H62.1z"/>
			<path class="st8" d="M74.6,15.6h5.3l-0.5,2.7h-8.7l2.1-10.5h8.5l-0.5,2.7h-5.1L74.6,15.6z M75.1,11.6h4.7l-0.5,2.6h-4.7
				L75.1,11.6z"/>
			<path class="st8" d="M80.7,18.3l2.1-10.5h4.7c1.4,0,2.5,0.3,3.2,0.9c0.8,0.6,1.1,1.5,1.1,2.5c0,0.9-0.2,1.7-0.7,2.3
				s-1.1,1.2-1.8,1.5c-0.8,0.4-1.7,0.6-2.8,0.6h-3.4l1.9-1.5l-0.8,4.1H80.7z M84.9,14.5l-1.2-1.6h3c0.5,0,0.9-0.1,1.1-0.4
				c0.3-0.2,0.4-0.6,0.4-1c0-0.4-0.1-0.7-0.4-0.8c-0.2-0.2-0.6-0.2-1-0.2h-2.7l1.9-1.7L84.9,14.5z M87.1,18.3l-2.2-3.8h3.6l2.2,3.8
				H87.1z"/>
			<path class="st8" d="M94.5,18.3l0.9-4.6l0.4,2.1l-3.2-8h3.6l2.2,5.5h-2.2l4.4-5.5h3.6l-6.3,8l1.2-2.1l-0.9,4.6H94.5z"/>
			<path class="st8" d="M109,17.3h6.3l-0.2,1h-7.4l2.1-10.5h7.2l-0.2,1h-6.1L109,17.3z M109.9,12.4h5.6l-0.2,0.9h-5.6L109.9,12.4z"
				/>
			<path class="st8" d="M116.3,18.3l5.4-5.7l-0.1,0.6l-3-5.4h1.2l2.6,4.6l-0.5-0.1l4.3-4.6h1.3l-5,5.4l0-0.6l3.2,5.7h-1.2l-2.7-4.9
				l0.5,0l-4.6,4.9H116.3z"/>
			<path class="st8" d="M127.6,18.3l2.1-10.5h3.8c1.2,0,2.1,0.3,2.8,0.8c0.7,0.5,1,1.3,1,2.2c0,0.9-0.2,1.7-0.6,2.3
				c-0.4,0.6-1,1.1-1.7,1.4c-0.7,0.3-1.6,0.5-2.6,0.5h-3.5l0.6-0.5l-0.8,3.8H127.6z M129.5,14.5l-0.4-0.5h3.3c1.2,0,2.1-0.3,2.8-0.8
				c0.7-0.5,1-1.3,1-2.3c0-0.7-0.2-1.2-0.7-1.6c-0.5-0.4-1.1-0.5-2-0.5h-3.2l0.6-0.6L129.5,14.5z"/>
			<path class="st8" d="M139.7,17.3h6.3l-0.2,1h-7.4l2.1-10.5h7.2l-0.2,1h-6.1L139.7,17.3z M140.6,12.4h5.6l-0.2,0.9h-5.6
				L140.6,12.4z"/>
			<path class="st8" d="M148.5,18.3l2.1-10.5h3.8c1.2,0,2.1,0.3,2.8,0.8c0.7,0.5,1,1.3,1,2.2c0,0.9-0.2,1.6-0.6,2.3
				c-0.4,0.6-1,1.1-1.7,1.4s-1.6,0.5-2.6,0.5h-3.5l0.6-0.5l-0.8,3.8H148.5z M150.3,14.5l-0.4-0.5h3.3c1.2,0,2.1-0.3,2.8-0.8
				c0.7-0.5,1-1.3,1-2.3c0-0.7-0.2-1.2-0.7-1.6c-0.5-0.4-1.1-0.5-2-0.5H151l0.6-0.5L150.3,14.5z M155.6,18.3l-2.1-3.8h1.2l2.2,3.8
				H155.6z"/>
			<path class="st8" d="M161.3,18.3l1.9-9.5h-3.7l0.2-1h8.5l-0.2,1h-3.7l-1.9,9.5H161.3z"/>
		</g>
	</g>
</g>
</svg>
